<?xml version="1.0" standalone="no"?>
<!DOCTYPE svg PUBLIC "-//W3C//DTD SVG 20010904//EN"
 "http://www.w3.org/TR/2001/REC-SVG-20010904/DTD/svg10.dtd">
<svg version="1.0" xmlns="http://www.w3.org/2000/svg"
 width="2480.000000pt" height="2480.000000pt" viewBox="0 0 2480.000000 2480.000000"
 preserveAspectRatio="xMidYMid meet">

<g transform="translate(0.000000,2480.000000) scale(0.100000,-0.100000)"
fill="#000000" stroke="none">
<path d="M5990 12219 c-350 -45 -685 -188 -953 -406 -98 -80 -252 -245 -330
-354 -87 -122 -204 -355 -251 -500 -214 -667 -56 -1388 416 -1895 587 -629
1600 -757 2356 -298 943 572 1172 1882 484 2764 -297 380 -744 628 -1242 690
-98 12 -385 11 -480 -1z m515 -684 c346 -77 613 -281 763 -580 202 -405 185
-881 -45 -1269 -63 -107 -238 -285 -345 -350 -347 -213 -841 -232 -1208 -46
-390 198 -628 643 -607 1130 15 322 127 594 332 805 168 173 375 279 625 320
108 18 386 12 485 -10z"/>
<path d="M1500 11840 l0 -320 520 0 520 0 0 -1475 0 -1475 335 0 335 0 2 1473
3 1472 518 3 517 2 0 320 0 320 -1375 0 -1375 0 0 -320z"/>
<path d="M8617 12153 c-4 -3 -7 -811 -7 -1795 l0 -1788 299 0 298 0 424 660
c233 362 426 659 429 659 3 0 187 -297 409 -659 l404 -660 393 0 c217 0 394 2
394 4 0 2 -270 440 -599 975 l-600 972 520 805 c286 443 523 812 526 820 4 12
-47 14 -383 12 l-389 -3 -720 -1120 -720 -1119 -5 1119 -5 1120 -331 3 c-182
1 -333 -1 -337 -5z"/>
<path d="M12050 10365 l0 -1795 335 0 335 0 2 1280 3 1280 477 -878 476 -877
320 -3 320 -2 466 863 c256 475 473 872 481 883 13 17 14 -139 15 -1263 l0
-1283 335 0 335 0 0 1795 0 1795 -441 -2 -440 -3 -527 -950 c-290 -523 -531
-956 -536 -963 -6 -10 -176 289 -544 952 l-536 966 -438 0 -438 0 0 -1795z"/>
<path d="M17771 12138 c-5 -13 -331 -817 -725 -1787 -394 -970 -716 -1768
-716 -1772 0 -5 161 -9 358 -9 l357 0 40 78 c30 58 64 101 135 173 87 88 106
102 210 153 130 63 280 105 460 131 232 32 1017 49 1037 23 5 -7 59 -136 119
-285 l109 -273 363 0 c211 0 362 4 360 9 -1 5 -329 813 -728 1795 l-725 1786
-323 0 -322 0 -9 -22z m623 -1687 c152 -377 276 -688 276 -691 0 -4 -111 -10
-247 -13 -252 -6 -375 -19 -525 -58 -153 -39 -297 -100 -417 -176 -29 -19 -55
-32 -57 -30 -2 2 146 375 329 828 183 453 337 833 341 844 l8 20 8 -20 c4 -11
132 -328 284 -704z"/>
<path d="M20250 10365 l0 -1795 298 0 297 0 425 660 c234 362 428 656 432 652
4 -4 187 -299 406 -657 l399 -650 398 -3 397 -2 -14 22 c-8 13 -279 452 -602
976 l-587 953 525 814 c289 447 526 816 526 819 0 3 -174 6 -387 6 l-388 0
-712 -1108 c-391 -609 -719 -1116 -727 -1127 -14 -18 -15 95 -16 1108 l0 1127
-335 0 -335 0 0 -1795z"/>
</g>
</svg>
